<svg width="133" height="48" viewBox="0 0 133 48" fill="none" xmlns="http://www.w3.org/2000/svg">
<path d="M26.1614 2.49528C26.1614 2.88969 26.0473 3.25736 25.8505 3.56692C25.8325 3.59522 25.8138 3.62303 25.7945 3.65033C25.4341 4.15889 24.842 4.49064 24.1726 4.49064C23.0743 4.49064 22.1839 3.59732 22.1839 2.49536C22.1839 2.08532 22.3072 1.70417 22.5186 1.38718C22.538 1.35806 22.5582 1.32948 22.5791 1.30147C22.9417 0.81493 23.5206 0.5 24.1727 0.5C25.271 0.5 26.1614 1.39332 26.1614 2.49528Z" fill="#080809"/>
<path d="M11.6879 27.9905C13.3203 27.9905 14.7292 27.0565 15.3844 25.7061L12.5892 20.1067C12.2992 20.043 11.9976 20.0094 11.6879 20.0094C9.43024 20.0094 7.60003 21.796 7.60003 23.9999C7.60003 26.2039 9.43024 27.9905 11.6879 27.9905Z" fill="#080809"/>
<path d="M20.2853 12.3458L25.9716 15.133C27.2643 14.4558 28.1501 13.0716 28.1501 11.4741C28.1501 9.20893 26.3693 7.37266 24.1727 7.37266C21.976 7.37266 20.1952 9.20893 20.1952 11.4741C20.1952 11.7732 20.2263 12.0649 20.2853 12.3458Z" fill="#080809"/>
<path d="M31.5271 17.856L31.7861 17.9829C32.1618 18.1457 32.5761 18.2359 33.0113 18.2359C34.7199 18.2359 36.1049 16.8463 36.1049 15.1321C36.1049 13.4179 34.7199 12.0283 33.0113 12.0283C31.3028 12.0283 29.9178 13.4179 29.9178 15.1321C29.9178 16.3067 30.5681 17.3288 31.5271 17.856Z" fill="#080809"/>
<path d="M36.6574 20.0095C36.3255 20.0095 36.0028 20.0481 35.6939 20.121C37.9753 22.1945 37.7806 25.9392 35.367 27.7878C35.7726 27.9194 36.2065 27.9906 36.6574 27.9906C38.9151 27.9906 40.7453 26.204 40.7453 24.0001C40.7453 21.7961 38.9151 20.0095 36.6574 20.0095Z" fill="#080809"/>
<path d="M33.0114 29.7641C31.3029 29.7641 29.9179 31.1537 29.9179 32.8679C29.9179 34.5821 31.3029 35.9717 33.0114 35.9717C34.7199 35.9717 36.105 34.5821 36.105 32.8679C36.105 31.1537 34.7199 29.7641 33.0114 29.7641Z" fill="#080809"/>
<path d="M15.334 29.7641C13.6255 29.7641 12.2404 31.1537 12.2404 32.8679C12.2404 34.5821 13.6255 35.9717 15.334 35.9717C17.0425 35.9717 18.4275 34.5821 18.4275 32.8679C18.4275 31.1537 17.0425 29.7641 15.334 29.7641Z" fill="#080809"/>
<path d="M26.1614 45.5046C26.1614 45.7802 26.1057 46.0426 26.0051 46.2814C25.8666 46.6099 25.6429 46.8934 25.3618 47.1041C25.0302 47.3528 24.6185 47.5 24.1726 47.5C23.0743 47.5 22.1839 46.6067 22.1839 45.5047C22.1839 45.2292 22.2396 44.9668 22.3402 44.7281C22.479 44.3988 22.7035 44.1147 22.9855 43.9038C23.3168 43.656 23.7277 43.5094 24.1727 43.5094C25.271 43.5094 26.1614 44.4027 26.1614 45.5046Z" fill="#080809"/>
<path d="M2.73879 22.0047C2.2239 22.0047 1.75473 22.201 1.40155 22.5231C1.378 22.5446 1.35497 22.5666 1.33248 22.5892C0.972594 22.9502 0.75 23.4491 0.75 24C0.75 25.102 1.64038 25.9953 2.73871 25.9953C3.25356 25.9953 3.72271 25.799 4.07588 25.477C4.10236 25.4528 4.1282 25.428 4.15335 25.4024C4.50834 25.042 4.7275 24.5467 4.7275 24C4.7275 22.898 3.83712 22.0047 2.73879 22.0047Z" fill="#080809"/>
<path d="M45.6067 22.0048C46.705 22.0048 47.5954 22.8981 47.5954 24C47.5954 25.102 46.705 25.9953 45.6067 25.9953C44.5083 25.9953 43.618 25.102 43.618 24C43.618 22.8981 44.5083 22.0048 45.6067 22.0048Z" fill="#080809"/>
<path d="M41.0367 38.1122C41.513 38.8985 41.4125 39.9376 40.7351 40.6172C39.9397 41.4152 38.6501 41.4152 37.8547 40.6172C37.7802 40.5424 37.7126 40.4632 37.652 40.3805C37.5813 40.284 37.5202 40.1827 37.4685 40.0778C37.092 39.314 37.2206 38.363 37.8546 37.727C38.65 36.929 39.9396 36.929 40.735 37.727C40.8345 37.8268 40.9215 37.9344 40.9961 38.0478C41.0101 38.0691 41.0236 38.0905 41.0367 38.1122Z" fill="#080809"/>
<path d="M40.7352 10.2728C39.9398 11.0709 38.6502 11.0709 37.8548 10.2728C37.0594 9.4748 37.0594 8.18094 37.8548 7.38291C38.6502 6.58489 39.9398 6.58489 40.7352 7.38291C41.5306 8.18094 41.5306 9.4748 40.7352 10.2728Z" fill="#080809"/>
<path d="M44.5465 17.1651C43.5183 17.6228 42.315 17.1576 41.8587 16.1261C41.6716 15.703 41.6392 15.2503 41.7371 14.8319C41.7436 14.804 41.7507 14.7763 41.7584 14.7487C41.9162 14.1814 42.3159 13.6866 42.8944 13.4291C43.9226 12.9713 45.1259 13.4365 45.5822 14.4681C45.7694 14.8913 45.8017 15.3441 45.7038 15.7626C45.6972 15.7905 45.6901 15.8182 45.6825 15.8458C45.5246 16.4129 45.1249 16.9076 44.5465 17.1651Z" fill="#080809"/>
<path d="M5.45108 34.5709C4.4229 35.0287 3.21953 34.5635 2.76328 33.5319C2.70625 33.403 2.66359 33.2713 2.63461 33.1386C2.62013 33.0723 2.60906 33.0058 2.60132 32.9392C2.5006 32.0738 2.96331 31.2069 3.79881 30.8349C4.82699 30.3772 6.03036 30.8424 6.48661 31.8739C6.54452 32.0049 6.58759 32.1386 6.61659 32.2733C6.62957 32.3336 6.63973 32.394 6.64713 32.4545C6.75364 33.3239 6.2905 34.1972 5.45108 34.5709Z" fill="#080809"/>
<path d="M3.69902 17.4716C2.66413 17.0294 2.18253 15.8291 2.62335 14.7908C3.06417 13.7525 4.26047 13.2693 5.29536 13.7116C6.33025 14.1539 6.81184 15.3541 6.37103 16.3924C5.93021 17.4307 4.73391 17.9139 3.69902 17.4716Z" fill="#080809"/>
<path d="M30.6473 44.5514C30.812 44.9411 31.0832 45.2529 31.4124 45.4671C31.4381 45.4838 31.4641 45.5 31.4905 45.5155C32.0273 45.8314 32.7009 45.8975 33.3178 45.635C34.3534 45.1943 34.8369 43.9949 34.3977 42.9558C34.233 42.5662 33.962 42.2545 33.6329 42.0403C33.6054 42.0224 33.5776 42.0052 33.5494 41.9887C33.0135 41.6754 32.3421 41.6106 31.7271 41.8722C30.6916 42.3129 30.2081 43.5124 30.6473 44.5514Z" fill="#080809"/>
<path d="M7.61017 37.7272C8.40557 36.9291 9.69516 36.9291 10.4906 37.7272C11.286 38.5252 11.286 39.8191 10.4906 40.6171C9.69516 41.4151 8.40557 41.4151 7.61017 40.6171C6.81477 39.8191 6.81477 38.5252 7.61017 37.7272Z" fill="#080809"/>
<path fill-rule="evenodd" clip-rule="evenodd" d="M17.2474 13.4394L33.475 21.3933C35.6486 22.4587 35.4229 25.6324 33.1205 26.3785L28.9776 27.721C28.7112 27.8073 28.5003 28.0133 28.4075 28.278L26.7355 33.0442C25.9478 35.2899 22.8528 35.4851 21.79 33.3561L13.6578 17.0656C12.5065 14.7593 14.9351 12.306 17.2474 13.4394ZM15.7972 15.9942C15.6692 15.7379 15.9391 15.4653 16.196 15.5912L32.4236 23.5452C32.6651 23.6635 32.64 24.0162 32.3842 24.0991L28.2413 25.4416C27.2644 25.7581 26.4912 26.5135 26.1508 27.4838L24.4789 32.25C24.3913 32.4996 24.0475 32.5213 23.9294 32.2847L15.7972 15.9942Z" fill="#080809"/>
<path fill-rule="evenodd" clip-rule="evenodd" d="M80.0253 24.5093C80.0253 31.2575 83.7816 35.6559 89.2748 35.6559C92.4859 35.6559 94.9901 34.2098 96.2826 31.7395H96.3634V35.435H100.604V5.14835H96.2422V17.2389H96.1413C94.8892 14.8288 92.3849 13.4029 89.2344 13.4029C83.7816 13.4029 80.0253 17.8012 80.0253 24.5093ZM84.5087 24.5294C84.5087 20.0306 86.8514 17.0983 90.3856 17.0983C93.8996 17.0983 96.2625 20.0908 96.2625 24.5294C96.2625 28.988 93.8996 31.9604 90.3856 31.9604C86.8312 31.9604 84.5087 29.0483 84.5087 24.5294Z" fill="#080809"/>
<path fill-rule="evenodd" clip-rule="evenodd" d="M58.4056 29.1889C58.4056 33.0851 61.435 35.6559 65.8174 35.6559C68.8063 35.6559 71.5327 34.1697 72.7444 31.7998H72.8454V35.435H77.0259V20.4724C77.0259 16.1544 73.5724 13.3426 68.2206 13.3426C63.2929 13.3426 59.6174 16.1945 59.4962 20.0507H63.5959C63.9796 18.1628 65.7164 16.9376 68.0995 16.9376C71.0278 16.9376 72.704 18.3033 72.704 20.7938V22.4808L66.7868 22.8222C61.3744 23.1637 58.4056 25.3729 58.4056 29.1889ZM72.704 27.2407C72.704 30.1127 70.2402 32.1814 66.9887 32.1814C64.4643 32.1814 62.8284 30.9763 62.8284 29.1085C62.8284 27.1805 64.3835 26.0758 67.3724 25.8951L72.704 25.5336V27.2407Z" fill="#080809"/>
<path d="M105.018 35.435V5.14835H109.4V35.435H105.018Z" fill="#080809"/>
<path d="M114.096 43.2476C114.439 43.3079 115.51 43.3681 115.873 43.3681C120.356 43.3681 122.437 41.6811 124.315 36.4392L132.534 13.6238H127.93L122.295 31.4583H122.194L116.56 13.6238H111.854L119.811 35.4952L119.468 36.6199C118.721 38.9296 117.569 39.8133 115.489 39.8133C115.106 39.8133 114.419 39.7932 114.096 39.7128V43.2476Z" fill="#080809"/>
</svg>
